<svg id="Layer_2" data-name="Layer 2" xmlns="http://www.w3.org/2000/svg" viewBox="0 0 38.17 46"><defs><style>.cls-1{fill:#fff;}</style></defs><title>bell</title><path class="cls-1" d="M14.09,41h10a0,0,0,0,1,0,0v0a5,5,0,0,1-5,5h0a5,5,0,0,1-5-5v0A0,0,0,0,1,14.09,41Z"/><path class="cls-1" d="M42.63,37.42A15.71,15.71,0,0,1,40,34a11,11,0,0,1-2-6V23a22.75,22.75,0,0,0-1-8,13.78,13.78,0,0,0-5-7,11.39,11.39,0,0,0-5-2c-.35,0-.68-.07-1-.09V3a2,2,0,0,0-4,0V5.91c-.32,0-.65,0-1,.09a11.39,11.39,0,0,0-5,2,13.78,13.78,0,0,0-5,7,22.75,22.75,0,0,0-1,8v5a11,11,0,0,1-2,6,16,16,0,0,1-2.62,3.42A1.49,1.49,0,0,0,6.4,40H41.6A1.5,1.5,0,0,0,42.63,37.42Zm-22-25.29a19.54,19.54,0,0,0-4,4.35,1.29,1.29,0,0,1-1.9.38,1.22,1.22,0,0,1-.24-1.38,11.32,11.32,0,0,1,2-3.08,11.43,11.43,0,0,1,2.87-2.31,1.21,1.21,0,0,1,1.4.11A1.28,1.28,0,0,1,20.68,12.13Z" transform="translate(-4.91 -1)"/></svg>