<svg id="Layer_4" data-name="Layer 4" xmlns="http://www.w3.org/2000/svg" viewBox="0 0 45.43 40"><defs><style>.cls-1{fill:#fff;}.cls-2{fill:#fc5f10;}</style></defs><title>notification</title><path class="cls-1" d="M33.26,7.94H7.41a5.83,5.83,0,0,0-5.84,5.84V42.34a.66.66,0,0,0,1,.57l9-5.31a7.41,7.41,0,0,1,3.75-1H33.26a5.84,5.84,0,0,0,5.84-5.84v-17A5.84,5.84,0,0,0,33.26,7.94Z" transform="translate(-1.57 -3)"/><circle class="cls-2" cx="33.93" cy="11.5" r="11.5"/><path class="cls-1" d="M37.49,21.85H34.74V11.48a9.5,9.5,0,0,1-3.56,2.09v-2.5a8,8,0,0,0,2.34-1.34,5.06,5.06,0,0,0,1.74-2.29h2.23Z" transform="translate(-1.57 -3)"/></svg>