<svg id="Layer_3" data-name="Layer 3" xmlns="http://www.w3.org/2000/svg" viewBox="0 0 44 46.6"><defs><style>.cls-1{fill:#ec0a0a;}</style></defs><title>timer</title><g id="Layer_2" data-name="Layer 2"><g id="Layer_1-2" data-name="Layer 1-2"><path class="cls-1" d="M17.6,4.73a8.66,8.66,0,0,0-14,10.2,1.5,1.5,0,0,0,2.09.37A1.93,1.93,0,0,0,6,15,22.29,22.29,0,0,1,16.87,7.06a1.51,1.51,0,0,0,.95-1.9A1.46,1.46,0,0,0,17.6,4.73Z" transform="translate(-2 -1.17)"/><path class="cls-1" d="M44.34,14.93a8.66,8.66,0,0,0-14-10.2,1.51,1.51,0,0,0,.3,2.1,1.42,1.42,0,0,0,.44.23A22.27,22.27,0,0,1,41.89,15a1.5,1.5,0,0,0,2.1.33A1.66,1.66,0,0,0,44.34,14.93Z" transform="translate(-2 -1.17)"/><path class="cls-1" d="M31.57,31l-5.16-3.2a2.5,2.5,0,0,0-.9-1.58V19.51a1.55,1.55,0,0,0-3.09,0v6.73a2.48,2.48,0,0,0,2.44,4.25l5.08,3.14A1.55,1.55,0,0,0,31.57,31h0Z" transform="translate(-2 -1.17)"/><path class="cls-1" d="M36.67,42A19,19,0,1,0,9.78,40.36,19.76,19.76,0,0,0,11.43,42l-1.7,2.24a2.17,2.17,0,0,0,3.46,2.61L15,44.49a19,19,0,0,0,17.25.43l.34-.17.1,0,.45-.23L35,46.9a2.17,2.17,0,1,0,3.46-2.61Zm-12.55-.52A13.65,13.65,0,1,1,30,40.16,13.63,13.63,0,0,1,24.12,41.49Z" transform="translate(-2 -1.17)"/></g></g></svg>